<svg enable-background="new 0 0 1290.43 926.64" viewBox="0 0 1290.43 926.64" xmlns="http://www.w3.org/2000/svg"><path d="m568.91 793.66c25.98 16.13 73.64 64.86 34.58 88.52-37.45 34.4-58.59-37.81-91.56-47.66 12.79-20.67 33.3-35.37 56.98-40.86z" fill="#f6d2a2" stroke="#000" stroke-miterlimit="10" stroke-width="2"/><path d="m272.7 857.27c-29.12 4.43-45.47 30.65-69.65 43.94-8.57 7.91-21.93 7.38-29.84-1.19-1.83-1.98-3.26-4.29-4.22-6.81-3.43.08-6.7-1.43-8.86-4.09-21.12-34.06 21.97-57.73 44.62-74.42 31.85-6.13 51.43 20.94 67.95 42.57z" fill="#f6d2a2" stroke="#000" stroke-miterlimit="10" stroke-width="2"/><path d="m547.17 70.19c93.12-60.17 178.76 86.75 63.67 118.59z" fill="#74cddd" stroke="#000" stroke-miterlimit="10" stroke-width="2"/><circle cx="605.26" cy="124.9" r="23.9" stroke="#000" stroke-miterlimit="10" stroke-width="2"/><path d="m120.71 211.73c-118.21-32.7-30.25-183.61 65.4-121.81z" fill="#74cddd" stroke="#000" stroke-miterlimit="10" stroke-width="2"/><circle cx="137.35" cy="148.8" r="26.47" stroke="#000" stroke-miterlimit="10" stroke-width="2"/><path d="m371.39 21.68c99.59 0 192.57 13.75 241.54 110.04 43.6 107.15 27.51 222.83 34.8 336.03 5.78 97.25 18.43 209.62-26.68 299.86-47.18 94.63-166.3 118.15-263.96 114.99-76.75-2.75-169.46-27.51-212.79-97.93-50.89-82.53-26.82-204.67-23.11-296.14 4.4-108.39-29.44-217.19 6.19-323.38 37-110.04 136.59-134.94 243.87-143.46" fill="#74cddd" stroke="#000" stroke-miterlimit="10" stroke-width="2"/><ellipse cx="261.57" cy="178.81" fill="#fff" rx="93.69" ry="87.96" stroke="#000" stroke-miterlimit="10" stroke-width="2"/><ellipse cx="493.74" cy="167.82" fill="#fff" rx="93.69" ry="87.96" stroke="#000" stroke-miterlimit="10" stroke-width="2"/><ellipse cx="493.74" cy="213.97" fill="#010101" rx="27.01" ry="29.79"/><ellipse cx="505.94" cy="220.76" fill="#fff" rx="6.33" ry="7.56"/><ellipse cx="272.7" cy="220.76" fill="#010101" rx="27.47" ry="29.79"/><ellipse cx="285.2" cy="227.56" fill="#fff" rx="6.48" ry="7.56"/><path d="m425.16 301.03c-2.22-2.33-3.2-1.11-17.2-4.38-11.14-2.6-16.71-3.9-18.16-4.83-.67-.43-2.68-1.85-3.91-1.15-1.09.62-1.03 2.6-1 3.59.12 4.51-.15 9.03.09 13.53.03.56.08 4.28.17 11.72.06 4.8.05 4.57.09 7.41.19 13.16.49 14.84.89 16.38.79 3.06 1.68 6.49 4.6 9.65 4.05 4.38 9.29 5.35 12.64 5.98 3.85.71 7.66 1.42 11.49-.46 3.77-1.85 5.43-5.14 7.81-9.88 3.05-6.06 4.04-11.27 4.83-15.63 1.52-8.39 1.25-14.73 1.15-16.55-.46-8.29-.69-12.45-3.49-15.38z" fill="#fff" stroke="#000" stroke-miterlimit="10" stroke-width="2"/><path d="m345.32 300.25c2.22-2.33 3.2-1.11 17.2-4.38 11.14-2.6 16.71-3.9 18.16-4.83.76-.48 2.81-1.87 3.91-1.15 1.03.68.66 2.86.46 4.37-.59 4.38 0 8.85-.09 13.27-.1 5.28.01 9.54.09 12.24.09 3.45.15 3.28.26 6.9.27 8.66.39 13.05-.43 16.03-.55 2.02-1.69 5.97-5.11 9.48-4.31 4.42-9.59 5.41-12.64 5.98-3.85.71-7.66 1.42-11.49-.46-3.77-1.85-5.43-5.14-7.81-9.88-3.05-6.06-4.04-11.27-4.83-15.63-1.52-8.39-1.25-14.73-1.15-16.55.44-8.3.67-12.45 3.47-15.39z" fill="#fff" stroke="#000" stroke-miterlimit="10" stroke-width="2"/><path d="m316.07 286.42c.16-2.83.65-9.75 5.29-16.32 2.23-3.17 4.68-5.19 6.21-6.44 1.94-1.58 6.14-4.69 12.18-6.67 5.07-1.66 9.13-1.76 13.56-1.84 16.83-.3 24.07-.26 29.42-.46 11.23-.42 11.13-2.25 22.98-2.76 11.05-.48 16.25.56 20.23 1.84 5.47 1.76 9.21 4.16 12.41 6.21 3.36 2.15 9.65 6.26 15.4 13.79 3.09 4.05 5.01 6.39 6.21 10.34 2.44 8.06-.2 15.03-.92 16.78-.83 2.02-3.85 8.63-11.26 12.64-6.62 3.58-12.94 3.03-15.63 2.76-3.47-.35-3.61-1-15.4-5.06-6.99-2.41-7.45-2.35-13.1-4.37-9.05-3.23-9.6-4.24-13.18-5.11-7.8-1.9-16.3.58-19.31 1.71-6.71 2.52-5.76 4.24-13.53 7.65-3.78 1.66-9.12 3.95-16.09 4.14-4.43.12-11.44.31-17.24-4.14-9.26-7.07-8.47-20.6-8.23-24.69z" fill="#f6d2a2" stroke="#000" stroke-miterlimit="10" stroke-width="2"/><path d="m345.87 261.19c-1.7-38.59 72.08-43.53 80.73-11.11 8.64 32.41-77.18 39.82-80.73 11.11z" fill="#010101"/><g stroke="#000"><path d="m693.02 514.1c-1.1 8-2.7 19.67-12.65 26.61-10.34 7.21-22.41 3.86-23.93 3.42-12.99-3.74-18.25-14.96-18.98-16.58-.47-.85-1.02-2.06-1.37-3.59-.31-1.34-.36-2.52-.34-3.42-.13-4.69 1.15-6.72 2.39-7.69 0 0 .44-.34 4.44-2.22s-.07-.03-2.91-1.2c-.39-.27-.84-.55-1.35-.81-.23-.11-.45-.22-.67-.31-.77-.29-1.79-.81-2.6-1.79-2.75-3.35-.54-9.05.17-10.94 3.19-8.5 13.87-14.3 23.25-16.41 3.69-.83 19.74-4.51 29.34 5.45 8.11 8.4 6.48 20.23 5.21 29.48z" fill="#f6d2a2" stroke-miterlimit="10" stroke-width="2"/><path d="m633.72 510.19c2.32.73 6.08 1.6 10.73 1.29 4.06-.27 7.29-1.34 9.4-2.22" fill="none" stroke-miterlimit="10" stroke-width="2"/><path d="m168.99 893.21c0-8.87 6.13-16.05 13.7-16.05" fill="none" stroke-miterlimit="10" stroke-width="2"/><path d="m603.49 882.18c0-12.09-4.08-21.87-9.13-21.87" fill="none" stroke-miterlimit="10" stroke-width="2"/><path d="m733.08 791.81c-25.98 16.13-73.64 64.86-34.58 88.52 37.45 34.4 58.59-37.81 91.56-47.66-12.79-20.67-33.3-35.37-56.98-40.86z" fill="#f6d2a2" stroke-miterlimit="10" stroke-width="2"/><path d="m1029.29 855.42c29.12 4.43 45.47 30.65 69.65 43.94 8.57 7.91 21.93 7.38 29.84-1.19 1.83-1.98 3.26-4.29 4.22-6.81 3.43.08 6.7-1.43 8.86-4.09 21.12-34.06-21.97-57.73-44.62-74.42-31.85-6.13-51.43 20.94-67.95 42.57z" fill="#f6d2a2" stroke-miterlimit="10" stroke-width="2"/><path d="m754.82 68.34c-93.12-60.17-178.76 86.75-63.67 118.59z" fill="#74cddd" stroke-miterlimit="10" stroke-width="2"/><circle cx="696.73" cy="123.05" r="23.9" stroke-miterlimit="10" stroke-width="2"/><path d="m1181.28 209.88c118.21-32.7 30.25-183.61-65.4-121.81z" fill="#74cddd" stroke-miterlimit="10" stroke-width="2"/><circle cx="1164.64" cy="146.95" r="26.47" stroke-miterlimit="10" stroke-width="2"/><path d="m930.6 19.83c-99.59 0-192.57 13.75-241.54 110.04-43.6 107.15-27.51 222.83-34.8 336.03-5.78 97.25-18.43 209.62 26.68 299.86 47.18 94.63 166.3 118.15 263.96 114.99 76.75-2.75 169.46-27.51 212.79-97.93 50.89-82.53 26.82-204.67 23.11-296.14-4.4-108.39 29.44-217.19-6.19-323.38-37-110.04-136.59-134.94-243.87-143.46" fill="#74cddd" stroke-miterlimit="10" stroke-width="2"/><ellipse cx="1040.42" cy="176.96" fill="#fff" rx="93.69" ry="87.96" stroke-miterlimit="10" stroke-width="2"/><ellipse cx="808.24" cy="165.97" fill="#fff" rx="93.69" ry="87.96" stroke-miterlimit="10" stroke-width="2"/></g><ellipse cx="808.24" cy="212.12" fill="#010101" rx="27.01" ry="29.79"/><ellipse cx="796.05" cy="218.91" fill="#fff" rx="6.33" ry="7.56"/><ellipse cx="1029.29" cy="218.91" fill="#010101" rx="27.47" ry="29.79"/><ellipse cx="1016.78" cy="225.71" fill="#fff" rx="6.48" ry="7.56"/><path d="m876.83 299.18c2.22-2.33 3.2-1.11 17.2-4.38 11.14-2.6 16.71-3.9 18.16-4.83.67-.43 2.68-1.85 3.91-1.15 1.09.62 1.03 2.6 1 3.59-.12 4.51.15 9.03-.09 13.53-.03.56-.08 4.28-.17 11.72-.06 4.8-.05 4.57-.09 7.41-.19 13.16-.49 14.84-.89 16.38-.79 3.06-1.68 6.49-4.6 9.65-4.05 4.38-9.29 5.35-12.64 5.98-3.85.71-7.66 1.42-11.49-.46-3.77-1.85-5.43-5.15-7.81-9.88-3.05-6.06-4.04-11.27-4.83-15.63-1.52-8.39-1.25-14.73-1.15-16.55.46-8.29.68-12.45 3.49-15.38z" fill="#fff" stroke="#000" stroke-miterlimit="10" stroke-width="2"/><path d="m956.67 298.4c-2.22-2.33-3.2-1.11-17.2-4.38-11.14-2.6-16.71-3.9-18.16-4.83-.76-.48-2.81-1.87-3.91-1.15-1.03.68-.66 2.86-.46 4.37.59 4.38 0 8.85.09 13.27.1 5.28-.01 9.54-.09 12.24-.09 3.45-.15 3.28-.26 6.9-.27 8.66-.39 13.05.43 16.03.55 2.02 1.69 5.97 5.11 9.48 4.31 4.42 9.59 5.41 12.64 5.98 3.85.71 7.66 1.42 11.49-.46 3.77-1.85 5.43-5.14 7.81-9.88 3.05-6.06 4.04-11.27 4.83-15.63 1.52-8.39 1.25-14.73 1.15-16.55-.44-8.3-.67-12.45-3.47-15.39z" fill="#fff" stroke="#000" stroke-miterlimit="10" stroke-width="2"/><path d="m985.92 284.57c-.16-2.83-.65-9.75-5.29-16.32-2.23-3.17-4.68-5.19-6.21-6.44-1.94-1.58-6.14-4.69-12.18-6.67-5.07-1.66-9.13-1.76-13.56-1.84-16.83-.3-24.07-.26-29.42-.46-11.23-.42-11.13-2.25-22.98-2.76-11.05-.48-16.25.56-20.23 1.84-5.47 1.76-9.21 4.16-12.41 6.21-3.36 2.15-9.65 6.26-15.4 13.79-3.09 4.05-5.01 6.39-6.21 10.34-2.44 8.06.2 15.03.92 16.78.83 2.02 3.85 8.63 11.26 12.64 6.62 3.58 12.94 3.03 15.63 2.76 3.47-.35 3.61-1 15.4-5.06 6.99-2.41 7.45-2.35 13.1-4.37 9.05-3.23 9.6-4.24 13.18-5.11 7.8-1.9 16.3.58 19.31 1.71 6.71 2.52 5.76 4.24 13.53 7.65 3.78 1.66 9.12 3.95 16.09 4.14 4.43.12 11.44.31 17.24-4.14 9.25-7.07 8.47-20.6 8.23-24.69z" fill="#f6d2a2" stroke="#000" stroke-miterlimit="10" stroke-width="2"/><path d="m956.12 259.34c1.7-38.59-72.08-43.53-80.73-11.11-8.64 32.41 77.18 39.82 80.73 11.11z" fill="#010101"/><path d="m608.97 512.25c1.1 8 2.7 19.67 12.65 26.61 10.34 7.21 22.41 3.86 23.93 3.42 12.99-3.74 18.25-14.96 18.98-16.58.47-.85 1.02-2.06 1.37-3.59.31-1.34.36-2.52.34-3.42.13-4.69-1.15-6.72-2.39-7.69 0 0-.44-.34-4.44-2.22s.07-.03 2.91-1.2c.39-.27.84-.55 1.35-.81.23-.11.45-.22.67-.31.77-.29 1.79-.81 2.6-1.79 2.75-3.35.54-9.05-.17-10.94-3.19-8.5-13.87-14.3-23.25-16.41-3.69-.83-19.74-4.51-29.34 5.45-8.11 8.4-6.48 20.23-5.21 29.48z" fill="#f6d2a2" stroke="#000" stroke-miterlimit="10" stroke-width="2"/><path d="m668.27 508.34c-2.32.73-6.08 1.6-10.73 1.29-4.06-.27-7.29-1.34-9.4-2.22" fill="none" stroke="#000" stroke-miterlimit="10" stroke-width="2"/><path d="m1133 891.36c0-8.87-6.13-16.05-13.7-16.05" fill="none" stroke="#000" stroke-miterlimit="10" stroke-width="2"/><path d="m698.5 880.33c0-12.09 4.08-21.87 9.13-21.87" fill="none" stroke="#000" stroke-miterlimit="10" stroke-width="2"/><path d="m168.96 721.32c-2.19-54.23-13.11-119.53-42.91-192.18-26.79-65.32-62.83-121.91-98.91-168.68 43.75-7.94 103.18-21.4 165.31-44.48 57.95-21.53 99.12-44.32 126.69-62.1.39 2.24.78 4.48 1.16 6.72 22.79 131.44 45.57 262.87 68.36 394.31-29.14 3.11-70.45 9.25-114.92 22.17-50.41 14.63-84.4 32.03-104.78 44.24z" fill="#f7f9f9" stroke="#000" stroke-miterlimit="10"/><path d="m649.26 744.88c0-125.75 0-251.5 0-377.26-45.07-6.38-108.18-18.05-174.97-40.26-75.37-25.06-125.24-53.48-155.15-73.49 23.79 133.59 47.59 267.18 71.38 400.77 86.25 30.08 172.49 60.16 258.74 90.24z" fill="#f7f9f9" stroke="#000" stroke-miterlimit="10"/><path d="m649.26 744.88c0-125.4 0-250.81 0-376.21 47.85-9.24 105-22.57 165.57-41.97 70.89-22.71 125.41-46.99 165.31-67.52-30.88 132.3-61.75 264.6-92.63 396.9-79.41 29.6-158.83 59.2-238.25 88.8z" fill="#f7f9f9" stroke="#000" stroke-miterlimit="10"/><path d="m1146.13 721.32c-1.04-52.31 5.37-115.04 28.45-184.99 22.42-67.96 55.32-126.82 88.75-175.19-46.03-8.57-108.07-23.07-172.08-47.9-47.94-18.6-83.84-37.89-109.75-54.06-30.88 132.3-61.75 264.6-92.63 396.9 27.8-.81 101.47-1.03 173.95 22.78 42.92 14.1 69.01 31.24 83.31 42.46z" fill="#f7f9f9" stroke="#000" stroke-miterlimit="10"/><path d="m1223.94 501.92c-1.1 8-2.7 19.67-12.65 26.61-10.34 7.21-22.41 3.86-23.93 3.42-12.99-3.74-18.25-14.96-18.98-16.58-.47-.85-1.02-2.06-1.37-3.59-.31-1.34-.36-2.52-.34-3.42-.13-4.69 1.15-6.72 2.39-7.69 0 0 .44-.34 4.44-2.22s-.07-.03-2.91-1.2c-.39-.27-.84-.55-1.35-.81-.23-.11-.45-.22-.67-.31-.77-.29-1.79-.81-2.6-1.79-2.75-3.35-.54-9.05.17-10.94 3.19-8.5 13.87-14.3 23.25-16.41 3.69-.83 19.74-4.51 29.34 5.45 8.1 8.4 6.48 20.23 5.21 29.48z" fill="#f6d2a2" stroke="#000" stroke-miterlimit="10" stroke-width="2"/><path d="m1170.98 498.01c2.32.73 6.08 1.6 10.73 1.29 4.06-.27 7.29-1.34 9.4-2.22" fill="none" stroke="#000" stroke-miterlimit="10" stroke-width="2"/><path d="m96.68 526.41c1.1 8 2.7 19.67 12.65 26.61 10.34 7.21 22.41 3.86 23.93 3.42 12.99-3.74 18.25-14.96 18.98-16.58.47-.85 1.02-2.06 1.37-3.59.31-1.34.36-2.52.34-3.42.13-4.69-1.15-6.72-2.39-7.69 0 0-.44-.34-4.44-2.22s.07-.03 2.91-1.2c.39-.27.84-.55 1.35-.81.23-.11.45-.22.67-.31.77-.29 1.79-.81 2.6-1.79 2.75-3.35.54-9.05-.17-10.94-3.19-8.5-13.87-14.3-23.25-16.41-3.69-.83-19.74-4.51-29.34 5.45-8.11 8.4-6.48 20.23-5.21 29.48z" fill="#f6d2a2" stroke="#000" stroke-miterlimit="10" stroke-width="2"/><path d="m149.36 523.38c-2.31.46-6.07 1.01-10.72.8-4.06-.19-7.3-.88-9.41-1.46" fill="none" stroke="#000" stroke-miterlimit="10" stroke-width="2"/></svg>